<?xml version="1.0" standalone="no"?>
<!DOCTYPE svg PUBLIC "-//W3C//DTD SVG 20010904//EN"
 "http://www.w3.org/TR/2001/REC-SVG-20010904/DTD/svg10.dtd">
<svg version="1.0" xmlns="http://www.w3.org/2000/svg"
 width="100.000000pt" height="100.000000pt" viewBox="0 0 100.000000 100.000000"
 preserveAspectRatio="xMidYMid meet">
<metadata>
Created by potrace 1.11, written by Peter Selinger 2001-2013
</metadata>
<g transform="translate(0.000000,100.000000) scale(0.100000,-0.100000)"
fill="#000000" stroke="none">
<path d="M119 879 c-8 -15 -8 -24 0 -32 6 -6 11 -20 11 -32 0 -11 7 -31 16
-43 8 -12 12 -27 9 -32 -3 -5 2 -23 11 -39 15 -25 16 -36 7 -66 -9 -29 -8 -38
4 -50 8 -8 21 -15 28 -15 19 0 27 -31 24 -93 -3 -72 6 -93 54 -125 80 -54 117
-66 216 -69 112 -4 151 -22 251 -114 83 -77 108 -88 132 -59 25 31 22 71 -12
157 -27 66 -30 87 -29 162 5 208 -54 279 -239 290 -7 1 -22 21 -32 45 -30 66
-40 71 -110 56 -58 -12 -60 -12 -90 14 -24 20 -36 24 -50 16 -13 -7 -24 -5
-41 8 -13 10 -31 17 -39 17 -8 -1 -22 2 -31 6 -9 5 -30 11 -47 14 -25 4 -34 1
-43 -16z m87 -14 c31 -8 63 -20 70 -26 8 -6 27 -9 43 -6 22 5 33 0 51 -20 18
-21 27 -24 53 -18 104 22 105 22 128 -31 11 -27 32 -100 45 -163 30 -142 67
-214 143 -278 82 -70 90 -77 116 -114 26 -34 31 -64 16 -88 -12 -18 -34 -5
-121 70 -100 85 -151 109 -239 109 -78 0 -145 19 -208 58 -59 37 -67 57 -54
128 27 137 46 190 84 232 11 12 15 22 9 22 -18 0 -59 -70 -76 -132 -16 -55
-17 -57 -35 -40 -10 9 -25 22 -35 27 -16 9 -16 14 4 70 11 33 30 78 41 99 12
21 16 36 9 31 -7 -4 -21 -28 -32 -52 -18 -41 -21 -44 -36 -30 -14 14 -13 21 7
68 11 29 20 54 17 56 -2 2 -9 -10 -16 -27 -21 -52 -50 -29 -30 25 9 23 8 26
-3 17 -15 -13 -27 -6 -27 15 0 16 6 16 76 -2z m514 -187 c80 -41 114 -126 104
-258 -4 -59 -1 -80 20 -131 l24 -60 -43 43 c-39 38 -42 44 -27 56 18 14 4 16
-17 3 -10 -6 -24 1 -47 23 l-33 31 22 18 22 18 -22 -10 c-29 -15 -31 -14 -44
10 -6 12 -7 19 -2 16 5 -4 10 0 10 7 0 8 -6 12 -13 9 -7 -2 -20 10 -29 28 -16
30 -16 31 0 26 9 -4 13 -3 10 3 -3 5 3 14 14 19 27 15 30 14 26 -9 -2 -11 0
-18 5 -15 5 3 7 14 5 25 -2 11 2 20 8 20 7 1 1 7 -13 15 -14 8 -33 12 -44 8
-12 -3 -16 -1 -12 6 5 7 1 9 -11 4 -10 -3 -15 -3 -11 2 4 4 2 15 -5 23 -10 12
-9 16 2 20 11 4 11 6 0 12 -16 10 -22 42 -6 34 7 -3 4 1 -5 9 -31 25 60 21
112 -5z m-25 -117 c6 -1 -5 -10 -23 -21 -36 -22 -46 -25 -37 -10 3 6 0 10 -7
11 -10 0 -10 2 1 6 10 4 11 7 1 13 -11 7 14 7 65 1z"/>
<path d="M620 660 c-8 -5 -10 -10 -5 -10 6 0 17 5 25 10 8 5 11 10 5 10 -5 0
-17 -5 -25 -10z"/>
<path d="M687 646 c4 -5 -5 -7 -19 -4 -15 3 -25 0 -25 -8 0 -8 9 -9 29 -4 15
5 42 4 60 -1 36 -10 52 -5 17 6 -14 5 -18 10 -10 14 6 4 -4 7 -23 7 -19 -1
-32 -5 -29 -10z"/>
<path d="M705 620 c3 -4 -7 -11 -21 -14 -15 -4 -24 -9 -22 -12 3 -2 22 2 43 9
34 12 36 14 17 19 -12 4 -20 3 -17 -2z"/>
<path d="M735 591 c6 -5 24 -13 40 -17 39 -9 30 0 -15 15 -19 6 -30 7 -25 2z"/>
<path d="M710 575 c14 -8 32 -14 40 -14 8 0 0 6 -19 14 -42 19 -54 19 -21 0z"/>
<path d="M779 552 c11 -8 6 -12 -23 -17 -36 -7 -44 -25 -15 -33 11 -3 11 -1
-1 8 -12 9 -9 10 15 6 23 -5 27 -4 15 5 -12 8 -8 9 15 5 19 -4 25 -3 17 2 -8
5 -13 13 -12 18 1 5 -4 10 -12 12 -9 3 -9 1 1 -6z"/>
<path d="M760 494 c-54 -17 -53 -16 -45 -4 4 6 -2 7 -17 1 -13 -4 -29 -7 -36
-5 -7 1 -8 0 -2 -3 5 -2 7 -10 4 -16 -5 -8 -2 -8 7 1 15 14 43 16 34 2 -3 -5
10 -3 29 5 40 17 86 21 51 4 -19 -8 -19 -9 -1 -6 11 1 20 10 22 20 1 9 2 17 1
16 -1 0 -22 -7 -47 -15z"/>
<path d="M760 450 c-9 -6 -10 -10 -3 -10 6 0 15 5 18 10 8 12 4 12 -15 0z"/>
<path d="M715 430 c-3 -6 1 -7 9 -4 18 7 21 14 7 14 -6 0 -13 -4 -16 -10z"/>
<path d="M759 421 c10 -7 11 -9 1 -13 -8 -2 -14 -11 -16 -20 -1 -11 4 -14 20
-11 17 4 18 3 6 -6 -19 -13 -1 -14 20 -1 13 9 13 10 0 10 -13 0 -13 1 0 10 11
8 7 9 -15 5 -30 -6 -30 -6 -6 8 20 12 21 15 6 20 -24 10 -33 8 -16 -2z"/>
<path d="M650 550 c-9 -6 -10 -10 -3 -10 6 0 15 5 18 10 8 12 4 12 -15 0z"/>
</g>
</svg>
